<?xml version="1.0" encoding="UTF-8"?>
<svg version="1.1" xmlns="http://www.w3.org/2000/svg" width="16" height="16">
<path d="M0 0 C5.28 0 10.56 0 16 0 C16 5.28 16 10.56 16 16 C10.72 16 5.44 16 0 16 C0 10.72 0 5.44 0 0 Z " fill="#00410F" transform="translate(0,0)"/>
<path d="M0 0 C0.66 0 1.32 0 2 0 C2 0.66 2 1.32 2 2 C2.66 2 3.32 2 4 2 C4 2.66 4 3.32 4 4 C4.66 4 5.32 4 6 4 C6 4.66 6 5.32 6 6 C6.66 6 7.32 6 8 6 C8 6.66 8 7.32 8 8 C7.34 8 6.68 8 6 8 C6 8.66 6 9.32 6 10 C5.34 10 4.68 10 4 10 C4.99 11.485 4.99 11.485 6 13 C8.20725073 13.36362818 8.20725073 13.36362818 10.625 13.1875 C11.44226562 13.16042969 12.25953125 13.13335937 13.1015625 13.10546875 C13.72804688 13.07066406 14.35453125 13.03585937 15 13 C15 13.33 15 13.66 15 14 C12.36 14 9.72 14 7 14 C7 14.66 7 15.32 7 16 C4.69 16 2.38 16 0 16 C0 10.72 0 5.44 0 0 Z " fill="#310039" transform="translate(0,0)"/>
<path d="M0 0 C0.639375 0.165 1.27875 0.33 1.9375 0.5 C5.97586652 1.15932515 9.91807258 1.08003779 14 1 C14 1.33 14 1.66 14 2 C11.36 2 8.72 2 6 2 C6 2.66 6 3.32 6 4 C3.69 4 1.38 4 -1 4 C-0.67 2.68 -0.34 1.36 0 0 Z " fill="#622000" transform="translate(1,12)"/>
</svg>
